name Walk8.mot
datacolumns 19
datarows 22
range 1.96300000 1.98400000
endheader

                time	   L_ground_force_vx	   L_ground_force_vy	   L_ground_force_vz	   L_ground_force_px	   L_ground_force_py	   L_ground_force_pz	   R_ground_force_vx	   R_ground_force_vy	   R_ground_force_vz	   R_ground_force_px	   R_ground_force_py	   R_ground_force_pz	   L_ground_torque_x	   L_ground_torque_y	   L_ground_torque_z	   R_ground_torque_x	   R_ground_torque_y	   R_ground_torque_z	
          1.96300000	        -19.41561988	        645.95142462	        -48.08045730	          0.10740013	          0.00000000	          0.06732627	          0.00000000	          0.00000000	          0.00000000	          0.00000000	          0.00000000	          0.00000000	          0.00000000	          2.79895765	          0.00000000	          0.00000000	          0.00000000	          0.00000000	
          1.96400000	        -18.86318602	        644.05547830	        -47.89507509	          0.10798735	          0.00000000	          0.06746134	          0.00000000	          0.00000000	          0.00000000	          0.00000000	          0.00000000	          0.00000000	          0.00000000	          2.81403998	          0.00000000	          0.00000000	          0.00000000	          0.00000000	
          1.96500000	        -18.32815190	        642.02984215	        -47.69789358	          0.10853264	          0.00000000	          0.06753017	          0.00000000	          0.00000000	          0.00000000	          0.00000000	          0.00000000	          0.00000000	          0.00000000	          2.82937974	          0.00000000	          0.00000000	          0.00000000	          0.00000000	
          1.96600000	        -17.81757784	        639.85981165	        -47.50032103	          0.10902725	          0.00000000	          0.06751573	          0.00000000	          0.00000000	          0.00000000	          0.00000000	          0.00000000	          0.00000000	          0.00000000	          2.83840986	          0.00000000	          0.00000000	          0.00000000	          0.00000000	
          1.96700000	        -17.32594935	        637.62368288	        -47.31087344	          0.10949097	          0.00000000	          0.06745191	          0.00000000	          0.00000000	          0.00000000	          0.00000000	          0.00000000	          0.00000000	          0.00000000	          2.83932697	          0.00000000	          0.00000000	          0.00000000	          0.00000000	
          1.96800000	        -16.84389873	        635.42411393	        -47.13544675	          0.10992811	          0.00000000	          0.06739221	          0.00000000	          0.00000000	          0.00000000	          0.00000000	          0.00000000	          0.00000000	          0.00000000	          2.83629384	          0.00000000	          0.00000000	          0.00000000	          0.00000000	
          1.96900000	        -16.36803844	        633.31679862	        -46.97867219	          0.11032992	          0.00000000	          0.06736916	          0.00000000	          0.00000000	          0.00000000	          0.00000000	          0.00000000	          0.00000000	          0.00000000	          2.83733645	          0.00000000	          0.00000000	          0.00000000	          0.00000000	
          1.97000000	        -15.89852296	        631.30829268	        -46.84245333	          0.11070823	          0.00000000	          0.06739075	          0.00000000	          0.00000000	          0.00000000	          0.00000000	          0.00000000	          0.00000000	          0.00000000	          2.84914919	          0.00000000	          0.00000000	          0.00000000	          0.00000000	
          1.97100000	        -15.43200716	        629.39244581	        -46.72693869	          0.11108963	          0.00000000	          0.06745424	          0.00000000	          0.00000000	          0.00000000	          0.00000000	          0.00000000	          0.00000000	          0.00000000	          2.87294888	          0.00000000	          0.00000000	          0.00000000	          0.00000000	
          1.97200000	        -14.96019299	        627.57314209	        -46.63442282	          0.11149164	          0.00000000	          0.06754762	          0.00000000	          0.00000000	          0.00000000	          0.00000000	          0.00000000	          0.00000000	          0.00000000	          2.90679079	          0.00000000	          0.00000000	          0.00000000	          0.00000000	
          1.97300000	        -14.47696779	        625.86284257	        -46.56620730	          0.11192115	          0.00000000	          0.06765217	          0.00000000	          0.00000000	          0.00000000	          0.00000000	          0.00000000	          0.00000000	          0.00000000	          2.94830656	          0.00000000	          0.00000000	          0.00000000	          0.00000000	
          1.97400000	        -13.98719851	        624.26770291	        -46.51640710	          0.11237422	          0.00000000	          0.06774690	          0.00000000	          0.00000000	          0.00000000	          0.00000000	          0.00000000	          0.00000000	          0.00000000	          2.99297523	          0.00000000	          0.00000000	          0.00000000	          0.00000000	
          1.97500000	        -13.50468686	        622.76883856	        -46.47124571	          0.11282931	          0.00000000	          0.06780251	          0.00000000	          0.00000000	          0.00000000	          0.00000000	          0.00000000	          0.00000000	          0.00000000	          3.03224224	          0.00000000	          0.00000000	          0.00000000	          0.00000000	
          1.97600000	        -13.03860743	        621.31860266	        -46.41311123	          0.11325794	          0.00000000	          0.06778906	          0.00000000	          0.00000000	          0.00000000	          0.00000000	          0.00000000	          0.00000000	          0.00000000	          3.05632545	          0.00000000	          0.00000000	          0.00000000	          0.00000000	
          1.97700000	        -12.58867178	        619.87121984	        -46.33190242	          0.11365626	          0.00000000	          0.06770905	          0.00000000	          0.00000000	          0.00000000	          0.00000000	          0.00000000	          0.00000000	          0.00000000	          3.06077247	          0.00000000	          0.00000000	          0.00000000	          0.00000000	
          1.97800000	        -12.15559691	        618.41513498	        -46.23480101	          0.11405544	          0.00000000	          0.06760957	          0.00000000	          0.00000000	          0.00000000	          0.00000000	          0.00000000	          0.00000000	          0.00000000	          3.05018729	          0.00000000	          0.00000000	          0.00000000	          0.00000000	
          1.97900000	        -11.74498148	        616.96611209	        -46.14030770	          0.11448357	          0.00000000	          0.06755037	          0.00000000	          0.00000000	          0.00000000	          0.00000000	          0.00000000	          0.00000000	          0.00000000	          3.03528571	          0.00000000	          0.00000000	          0.00000000	          0.00000000	
          1.98000000	        -11.35863695	        615.54725934	        -46.06402785	          0.11493433	          0.00000000	          0.06756692	          0.00000000	          0.00000000	          0.00000000	          0.00000000	          0.00000000	          0.00000000	          0.00000000	          3.02558987	          0.00000000	          0.00000000	          0.00000000	          0.00000000	
          1.98100000	        -10.98823339	        614.18807833	        -46.00928008	          0.11539427	          0.00000000	          0.06765452	          0.00000000	          0.00000000	          0.00000000	          0.00000000	          0.00000000	          0.00000000	          0.00000000	          3.02424573	          0.00000000	          0.00000000	          0.00000000	          0.00000000	
          1.98200000	        -10.61515699	        612.93244582	        -45.96700215	          0.11587629	          0.00000000	          0.06777963	          0.00000000	          0.00000000	          0.00000000	          0.00000000	          0.00000000	          0.00000000	          0.00000000	          3.03089466	          0.00000000	          0.00000000	          0.00000000	          0.00000000	
          1.98300000	        -10.21851808	        611.82870252	        -45.92346330	          0.11640447	          0.00000000	          0.06791267	          0.00000000	          0.00000000	          0.00000000	          0.00000000	          0.00000000	          0.00000000	          0.00000000	          3.04587140	          0.00000000	          0.00000000	          0.00000000	          0.00000000	
          1.98400000	         -9.79205807	        610.89323866	        -45.86618921	          0.11698877	          0.00000000	          0.06803851	          0.00000000	          0.00000000	          0.00000000	          0.00000000	          0.00000000	          0.00000000	          0.00000000	          3.06476291	          0.00000000	          0.00000000	          0.00000000	          0.00000000	
